<mxfile host="app.diagrams.net" agent="Mozilla/5.0 (Windows NT 10.0; Win64; x64) AppleWebKit/537.36 (KHTML, like Gecko) Chrome/140.0.0.0 Safari/537.36" version="28.0.7">
  <diagram name="第 1 页" id="UYm-9CZv-ICHsUl14jBG">
    <mxGraphModel dx="1425" dy="784" grid="1" gridSize="10" guides="1" tooltips="1" connect="1" arrows="1" fold="1" page="1" pageScale="1" pageWidth="1169" pageHeight="827" math="0" shadow="0">
      <root>
        <mxCell id="0" />
        <mxCell id="1" parent="0" />
        <mxCell id="tKNlXJ9QV5qrp1kIsvl2-9" value="" style="edgeStyle=orthogonalEdgeStyle;rounded=0;orthogonalLoop=1;jettySize=auto;html=1;" edge="1" parent="1" source="tKNlXJ9QV5qrp1kIsvl2-2" target="tKNlXJ9QV5qrp1kIsvl2-8">
          <mxGeometry relative="1" as="geometry" />
        </mxCell>
        <mxCell id="tKNlXJ9QV5qrp1kIsvl2-2" value="&lt;font style=&quot;font-size: 16px;&quot;&gt;开始&lt;/font&gt;" style="strokeWidth=2;html=1;shape=mxgraph.flowchart.terminator;whiteSpace=wrap;" vertex="1" parent="1">
          <mxGeometry x="170" y="130" width="120" height="50" as="geometry" />
        </mxCell>
        <mxCell id="tKNlXJ9QV5qrp1kIsvl2-8" value="通知消息批量发送完毕，且保存到数据库‘" style="rounded=1;whiteSpace=wrap;html=1;strokeWidth=2;" vertex="1" parent="1">
          <mxGeometry x="160" y="230" width="140" height="60" as="geometry" />
        </mxCell>
      </root>
    </mxGraphModel>
  </diagram>
</mxfile>
